<svg xmlns="http://www.w3.org/2000/svg" xmlns:xlink="http://www.w3.org/1999/xlink" width="500" zoomAndPan="magnify" viewBox="0 0 375 374.999991" height="500" preserveAspectRatio="xMidYMid meet" version="1.0"><defs><clipPath id="187b7fcda2"><path d="M 129.070312 56.691406 L 273.171875 56.691406 L 273.171875 104.535156 L 129.070312 104.535156 Z M 129.070312 56.691406 " clip-rule="nonzero"/></clipPath><clipPath id="87341b9dae"><path d="M 129.070312 270.464844 L 273.171875 270.464844 L 273.171875 318.308594 L 129.070312 318.308594 Z M 129.070312 270.464844 " clip-rule="nonzero"/></clipPath><clipPath id="9b7394b38c"><path d="M 69.332031 56.691406 L 117.179688 56.691406 L 117.179688 318.308594 L 69.332031 318.308594 Z M 69.332031 56.691406 " clip-rule="nonzero"/></clipPath><clipPath id="4b9f27f475"><path d="M 267.894531 56.691406 L 305.667969 56.691406 L 305.667969 318.308594 L 267.894531 318.308594 Z M 267.894531 56.691406 " clip-rule="nonzero"/></clipPath></defs><rect x="-37.5" width="450" fill="#ffffff" y="-37.499999" height="449.999989" fill-opacity="1"/><rect x="-37.5" width="450" fill="#004aad" y="-37.499999" height="449.999989" fill-opacity="1"/><g clip-path="url(#187b7fcda2)"><path fill="#ffffff" d="M 129.070312 56.691406 L 273.171875 56.691406 L 273.171875 104.535156 L 129.070312 104.535156 Z M 129.070312 56.691406 " fill-opacity="1" fill-rule="nonzero"/></g><g clip-path="url(#87341b9dae)"><path fill="#ffffff" d="M 129.070312 270.464844 L 273.171875 270.464844 L 273.171875 318.308594 L 129.070312 318.308594 Z M 129.070312 270.464844 " fill-opacity="1" fill-rule="nonzero"/></g><g clip-path="url(#9b7394b38c)"><path fill="#ffffff" d="M 69.332031 56.691406 L 117.179688 56.691406 L 117.179688 318.355469 L 69.332031 318.355469 Z M 69.332031 56.691406 " fill-opacity="1" fill-rule="nonzero"/></g><g clip-path="url(#4b9f27f475)"><path fill="#ffffff" d="M 267.894531 56.691406 L 305.667969 56.691406 L 305.667969 318.304688 L 267.894531 318.304688 Z M 267.894531 56.691406 " fill-opacity="1" fill-rule="nonzero"/></g></svg>